<svg width="150" height="150" viewBox="0 0 150 150" fill="none" xmlns="http://www.w3.org/2000/svg">
<g clip-path="url(#clip0)">
<rect width="150" height="150" rx="36" fill="#272727"/>
<path d="M46.9082 114V35.7969H72.0986C79.0094 35.7969 85.222 37.3724 90.7363 40.5234C96.2507 43.6387 100.548 48.0609 103.627 53.79C106.742 59.4834 108.318 65.875 108.354 72.9648V76.5635C108.354 83.7249 106.832 90.1523 103.788 95.8457C100.78 101.503 96.5192 105.943 91.0049 109.166C85.5264 112.353 79.4033 113.964 72.6357 114H46.9082ZM65.7607 50.3525V99.498H72.3135C77.7204 99.498 81.874 97.5824 84.7744 93.751C87.6748 89.8838 89.125 84.1546 89.125 76.5635V73.1797C89.125 65.6243 87.6748 59.931 84.7744 56.0996C81.874 52.2682 77.6488 50.3525 72.0986 50.3525H65.7607Z" fill="url(#paint0_linear)"/>
</g>
<defs>
<linearGradient id="paint0_linear" x1="77" y1="12" x2="77" y2="141" gradientUnits="userSpaceOnUse">
<stop stop-color="#A45FFF"/>
<stop offset="0.0001" stop-color="#A45FFF"/>
<stop offset="1" stop-color="#A45FFF" stop-opacity="0.05"/>
</linearGradient>
<clipPath id="clip0">
<rect width="150" height="150" fill="white"/>
</clipPath>
</defs>
</svg>
